<svg width="121" height="77" viewBox="0 0 121 77" fill="none" xmlns="http://www.w3.org/2000/svg">
<path fill-rule="evenodd" clip-rule="evenodd" d="M49.4169 23.3903C51.8279 24.4043 53.5971 26.4661 55.4085 30.3737C56.2605 32.2119 58.5141 36.9551 60.416 40.9141C65.5068 51.5121 65.2903 50.5059 65.2903 63.5843C65.2903 76.9104 65.6353 76.1346 59.7106 76.1346C54.6028 76.1346 54.4928 76.0574 54.4928 72.4804V69.4504H32.8978H11.3028V71.9847C11.3028 75.609 10.5866 76.1346 5.64701 76.1346C-0.394441 76.1346 -0.123467 76.7948 0.0791144 62.5606L0.248265 50.6833L6.10309 38.5006C11.8273 26.5894 13.3168 24.2767 15.9303 23.2376C16.6733 22.942 23.6439 22.7127 32.4495 22.6936C44.4989 22.6679 48.0457 22.8134 49.4169 23.3903ZM9.24618 46.8445C9.24618 45.6409 16.6003 31.5445 17.7721 30.5023C19.0508 29.365 19.2997 29.3454 32.6001 29.3454C48.2082 29.3454 47.7207 29.206 50.1702 34.3713C53.683 41.78 56.0353 46.8862 56.0353 47.1037C56.0353 47.2343 45.5077 47.3412 32.6407 47.3412C17.933 47.3412 9.24618 47.1566 9.24618 46.8445ZM8.32787 62.4809C4.96265 61.0746 4.39501 56.19 7.33192 53.9082C9.17161 52.4783 12.3924 52.7215 13.9899 54.411C17.9161 58.5629 13.6166 64.6908 8.32787 62.4809ZM53.2053 62.7657C49.7342 61.6201 48.6766 57.1222 51.2469 54.4392C53.8079 51.7661 58.4735 52.8223 59.634 56.3371C60.9276 60.2571 57.1253 64.0593 53.2053 62.7657Z" fill="#FF6623"/>
<path fill-rule="evenodd" clip-rule="evenodd" d="M93.3956 15.2424C113.492 20.3686 113.23 20.2714 115.044 23.2777C115.995 24.8541 120.82 48.4276 120.82 51.4982C120.82 53.6978 114.99 74.6912 114.306 74.9534C113.295 75.3416 106.02 73.6007 105.192 72.7729C104.573 72.1538 104.58 71.6798 105.239 69.4293C105.662 67.9871 105.928 66.7309 105.83 66.6389C105.733 66.5464 97.1748 64.2182 86.8138 61.4654L67.9748 56.4605L67.7192 53.3148C67.5151 50.7984 67.6282 50.0663 68.2853 49.655C71.9194 47.3803 72.7909 44.8306 70.96 41.8279C69.5985 39.5943 67.2359 39.0739 64.2398 40.348C63.6398 40.603 63.0244 39.8138 61.7174 37.1124L59.9892 33.5394L61.4289 31.8284C76.3824 14.0521 77.2333 13.2432 81.8269 12.4375C82.0135 12.4046 87.2195 13.667 93.3956 15.2424ZM68.3753 34.0239C68.3753 33.4809 79.073 21.2468 80.2973 20.3897C80.9359 19.9423 82.0429 19.5768 82.7581 19.5778C84.1036 19.5793 105.623 25.2984 108.059 26.3021C109.975 27.0913 110.827 29.2015 112.102 36.3109C113.648 44.9345 113.817 46.3129 113.326 46.3129C112.877 46.3129 100.702 43.1236 96.6544 41.9456C95.3819 41.5754 88.4987 39.7126 81.358 37.806C74.2172 35.8995 68.3753 34.1977 68.3753 34.0239ZM104.895 57.9243C103.987 55.1746 105.597 51.9734 108.223 51.3029C113.093 50.0597 116.679 56.1894 113.147 59.7207C110.411 62.4571 106.08 61.5142 104.895 57.9243Z" fill="#FF6623"/>
<path d="M49.7784 8.93145C50.4669 9.7608 56.4518 23.7713 55.8584 23.1646C54.8861 22.1702 46.2661 10.5763 46.2661 10.2626C46.2661 9.83639 48.3295 8.26458 48.8884 8.26458C49.0735 8.26458 49.474 8.56484 49.7784 8.93145Z" fill="#FF6623"/>
<path d="M62.5688 0.901745C62.9642 1.93213 60.5759 22.2931 60.1229 21.7512C59.6232 21.1522 57.4235 1.69559 57.7577 0.825111C58.1963 -0.317881 62.1251 -0.255643 62.5688 0.901745Z" fill="#FF6623"/>
<path d="M73.0367 7.76844C73.5838 8.06151 74.0311 8.58442 74.0311 8.93045C74.0311 9.38909 65.788 20.7707 64.534 22.0443C64.4501 22.1291 65.7818 18.8317 67.4925 14.7174C70.6258 7.18074 71.0186 6.68817 73.0367 7.76844Z" fill="#FF6623"/>
</svg>
