<svg width="88" height="42" viewBox="0 0 88 42" fill="none" xmlns="http://www.w3.org/2000/svg">
<path d="M20.9852 38.7411V38.7472C20.9375 38.7712 20.8837 38.7831 20.8299 38.7831H18.9394V38.0133H20.8299C20.9615 38.0133 21.0509 38.0732 21.0983 38.1209C21.1403 38.1626 21.2117 38.258 21.2117 38.3952C21.2117 38.5444 21.1223 38.6815 20.9852 38.7411ZM21.6237 37.602L21.6176 37.5959C21.4145 37.3931 21.1342 37.2678 20.8241 37.2678H18.1934V41.4436H18.9394V39.5225H20.9375V39.5167H20.9734C21.0865 39.5048 21.1941 39.475 21.2956 39.4273C21.683 39.2482 21.9517 38.8545 21.9517 38.4012C21.9517 38.0908 21.8265 37.8105 21.6237 37.602Z" fill="#002EC2"/>
<path d="M26.7689 38.7946V38.0251H28.6599C28.791 38.0251 28.8804 38.0847 28.9284 38.1324C28.97 38.174 29.0418 38.2695 29.0418 38.4069C29.0418 38.5559 28.9524 38.6933 28.8147 38.7526C28.7673 38.7766 28.7134 38.7885 28.6599 38.7885L26.7689 38.7946ZM28.8028 39.5163C28.9162 39.5045 29.0239 39.4747 29.1251 39.4269C29.5127 39.2479 29.7812 38.8541 29.7812 38.4008C29.7812 38.0907 29.6559 37.8104 29.4531 37.6076C29.2504 37.4049 28.97 37.2796 28.6599 37.2796H26.0234V41.4551H26.7689V39.5343H27.5147C27.7831 39.5343 28.0157 39.6774 28.1467 39.8921L28.1647 39.928L28.5645 40.7093L28.946 41.4551H29.7812L29.3993 40.7093L28.8028 39.5163Z" fill="#002EC2"/>
<path d="M35.9902 40.6868C35.114 40.7981 34.3728 40.0572 34.4843 39.1807C34.5603 38.5833 35.0428 38.1011 35.6402 38.0248C36.5164 37.9129 37.2583 38.6544 37.1464 39.5309C37.0701 40.1284 36.5876 40.6108 35.9902 40.6868ZM36.0294 37.2787C34.7102 37.1468 33.6063 38.2507 33.7383 39.5696C33.8359 40.5458 34.6257 41.3353 35.6019 41.4329C36.9205 41.5646 38.0241 40.4607 37.8925 39.1421C37.7952 38.1659 37.0056 37.3763 36.0294 37.2787Z" fill="#002EC2"/>
<path d="M45.7934 37.2742V38.0197H44.0815V41.4497H43.336V38.0197H41.624V37.2742H45.7934Z" fill="#002EC2"/>
<path d="M50.6284 38.3955V38.7831H53.3126V39.5289H50.6284V40.316C50.6284 40.5264 50.8001 40.6978 51.0102 40.6978H54.0584V41.4436H51.0102C50.3909 41.4436 49.8887 40.9417 49.8887 40.3224V38.3894C49.8887 37.7728 50.3937 37.2681 51.0102 37.2681H54.0584V38.0136H51.0102C50.8001 38.0136 50.6284 38.1857 50.6284 38.3955Z" fill="#002EC2"/>
<path d="M58.4929 39.5836C58.6009 40.2357 59.1919 40.6978 59.8528 40.6978H61.1583V39.8986H59.8164V39.1531H61.9041V41.4436H59.8644C58.7778 41.4436 57.8359 40.6325 57.7374 39.5507C57.6243 38.3118 58.6006 37.2681 59.8164 37.2681H61.9041V38.0136H59.8164C59.0019 38.0136 58.3537 38.7439 58.4929 39.5836Z" fill="#002EC2"/>
<path d="M66.7329 38.3955V38.7831H69.4171V39.5289H66.7329V40.316C66.7329 40.5264 66.9046 40.6978 67.1147 40.6978H70.1629V41.4436H67.1205C66.4981 41.4436 65.9932 40.9389 65.9932 40.316V38.3955C65.9932 37.7755 66.5006 37.2681 67.1205 37.2681H70.1629V38.0136H67.1147C66.9046 38.0136 66.7329 38.1857 66.7329 38.3955Z" fill="#002EC2"/>
<path d="M52.3863 27.3562L50.3213 23.3224L40.8665 4.76841L31.4119 23.3224L29.3467 27.3562H33.8642L35.9294 23.3224L40.8665 13.642L45.8038 23.3224L47.8688 27.3562H52.3863Z" fill="#002CBA"/>
<path d="M27.8621 27.4534V4.76859L14.3917 14.8947L0.921875 4.76859V27.4534H5.66192L5.73276 14.3302L14.4044 20.8837L23.0515 14.3302L22.8746 27.4534H27.8621Z" fill="#002CBA"/>
<path d="M67.0909 0.54501L61.5127 7.89784L64.9372 12.3333L73.9467 0.54501" fill="white"/>
<path d="M61.5449 25.333L66.4507 31.6765H73.1769H73.2198H73.2629L64.9439 20.9235L61.5449 25.333Z" fill="white"/>
<path d="M58.1883 12.2095L58.1716 12.2311L49.8936 1.49479H43.0811L54.7656 16.6288L43.1671 31.6765H49.9797L56.8926 22.7364L61.6007 16.6288L58.1883 12.2095Z" fill="white"/>
<path d="M80.5771 0.545628L71.6579 12.2311L68.3319 7.91731L63.38 1.4951H56.727H56.5674L68.252 16.6288L56.6537 31.6765H56.813H63.466L68.3748 25.3285L71.7014 21.0271L79.9365 31.6765H80.0101H80.053H80.0961H86.6628H86.7059H86.7491L75.1077 16.6288L87.4329 0.545628" fill="white"/>
</svg>
