<svg width="116" height="55" viewBox="0 0 116 55" fill="none" xmlns="http://www.w3.org/2000/svg">
<path d="M26.9012 51.2157V51.2239C26.8372 51.2561 26.765 51.272 26.6929 51.272H24.1581V50.2398H26.6929C26.8694 50.2398 26.9893 50.3201 27.0528 50.3841C27.1091 50.44 27.2049 50.568 27.2049 50.7518C27.2049 50.952 27.0851 51.1358 26.9012 51.2157ZM27.7573 49.6882L27.7491 49.6801C27.4768 49.4082 27.101 49.2402 26.6851 49.2402H23.1577V54.8394H24.1581V52.2634H26.8372V52.2556H26.8853C27.0369 52.2397 27.1813 52.1998 27.3174 52.1358C27.8368 51.8957 28.1971 51.3678 28.1971 50.76C28.1971 50.3437 28.0292 49.9679 27.7573 49.6882Z" fill="#002EC2"/>
<path d="M34.6573 51.2874V50.2556H37.1929C37.3686 50.2556 37.4884 50.3355 37.5528 50.3995C37.6087 50.4553 37.7049 50.5833 37.7049 50.7676C37.7049 50.9673 37.5851 51.1516 37.4004 51.2311C37.3368 51.2633 37.2646 51.2792 37.1929 51.2792L34.6573 51.2874ZM37.3845 52.2551C37.5365 52.2392 37.6809 52.1993 37.8166 52.1353C38.3364 51.8952 38.6963 51.3673 38.6963 50.7594C38.6963 50.3436 38.5284 49.9678 38.2565 49.6959C37.9846 49.424 37.6087 49.256 37.1929 49.256H33.6577V54.8547H34.6573V52.2792H35.6573C36.0172 52.2792 36.3291 52.4712 36.5048 52.759L36.5288 52.8071L37.0649 53.8548L37.5765 54.8547H38.6963L38.1843 53.8548L37.3845 52.2551Z" fill="#002EC2"/>
<path d="M47.0214 53.8247C45.8466 53.9739 44.8527 52.9804 45.0023 51.8051C45.1042 51.0041 45.7512 50.3576 46.5522 50.2552C47.7271 50.1052 48.7217 51.0995 48.5717 52.2748C48.4694 53.0758 47.8225 53.7227 47.0214 53.8247ZM47.074 49.2549C45.3052 49.0779 43.825 50.5581 44.0019 52.3265C44.1328 53.6355 45.1919 54.6942 46.5008 54.825C48.2688 55.0016 49.7486 53.5214 49.5721 51.7534C49.4417 50.4444 48.383 49.3857 47.074 49.2549Z" fill="#002EC2"/>
<path d="M60.1655 49.2489V50.2485H57.87V54.8477H56.8704V50.2485H54.575V49.2489H60.1655Z" fill="#002EC2"/>
<path d="M66.6493 50.7522V51.272H70.2485V52.272H66.6493V53.3274C66.6493 53.6095 66.8796 53.8394 67.1613 53.8394H71.2484V54.8394H67.1613C66.3309 54.8394 65.6575 54.1663 65.6575 53.3359V50.7441C65.6575 49.9173 66.3346 49.2406 67.1613 49.2406H71.2484V50.2402H67.1613C66.8796 50.2402 66.6493 50.4709 66.6493 50.7522Z" fill="#002EC2"/>
<path d="M77.1949 52.3453C77.3396 53.2197 78.1321 53.8394 79.0184 53.8394H80.7688V52.7677H78.9694V51.7681H81.7688V54.8394H79.0338C77.5769 54.8394 76.314 53.7517 76.1819 52.3013C76.0302 50.6401 77.3392 49.2406 78.9694 49.2406H81.7688V50.2402H78.9694C77.8773 50.2402 77.0082 51.2194 77.1949 52.3453Z" fill="#002EC2"/>
<path d="M88.2433 50.7522V51.272H91.8425V52.272H88.2433V53.3274C88.2433 53.6095 88.4736 53.8394 88.7553 53.8394H92.8424V54.8394H88.763C87.9286 54.8394 87.2515 54.1626 87.2515 53.3274V50.7522C87.2515 49.921 87.9318 49.2406 88.763 49.2406H92.8424V50.2402H88.7553C88.4736 50.2402 88.2433 50.4709 88.2433 50.7522Z" fill="#002EC2"/>
<path d="M69.0076 35.9502L66.2388 30.5414L53.5612 5.66315L40.8839 30.5414L38.1147 35.9502H44.1721L46.9413 30.5414L53.5612 17.5613L60.1815 30.5414L62.9502 35.9502H69.0076Z" fill="#002CBA"/>
<path d="M36.123 36.0806V5.66347L18.0611 19.2412L0 5.66347V36.0806H6.35573L6.45071 18.4842L18.0782 27.2716L29.6727 18.4842L29.4355 36.0806H36.123Z" fill="#002CBA"/>
<path d="M88.7235 2.76566e-05L81.2439 9.85914L85.8357 15.8064L97.9161 2.76566e-05" fill="#F26531"/>
<path d="M81.2871 33.2372L87.865 41.7429H96.8839H96.9414H96.9993L85.8447 27.3246L81.2871 33.2372Z" fill="#F26531"/>
<path d="M76.7863 15.6404L76.7639 15.6694L65.6643 1.27349H56.5295L72.1969 21.5661L56.6449 41.7429H65.7796L75.0489 29.7555L81.3618 21.5661L76.7863 15.6404Z" fill="#F26531"/>
<path d="M106.807 0.000793457L94.8481 15.6694L90.3883 9.88518L83.7485 1.2739H74.8278H74.6138L90.2811 21.5661L74.7295 41.7429H74.9432H83.8638L90.4458 33.2311L94.9064 27.4636L105.948 41.7429H106.047H106.105H106.163H114.967H115.025H115.083L99.4737 21.5661L116 0.000793457" fill="#F26531"/>
</svg>
