<svg width="527" height="687" viewBox="0 0 527 687" fill="none" xmlns="http://www.w3.org/2000/svg">
<path d="M100.494 79.5H100.755L100.904 79.7135L283.036 340.194L283.24 340.484L283.033 340.772L100.9 594.292L100.751 594.5H100.494H-6.10352e-05H-0.937714L-0.415253 593.721L169.523 340.477L-0.418701 80.2734L-0.923798 79.5H-6.10352e-05H100.494Z" stroke="#002CBA"/>
<path d="M282.601 0.5H282.862L283.011 0.713484L525.736 347.852L525.939 348.142L525.732 348.43L283.007 686.292L282.858 686.5H282.601H148.674H147.736L148.259 685.721L374.794 348.134L148.255 1.27341L147.75 0.5H148.674H282.601Z" stroke="#FF6623"/>
</svg>
